HIERARCHY
ROOT Hips
{
    OFFSET 0.000000 0.000000 0.000000
    CHANNELS 6 Xposition Yposition Zposition Zrotation Xrotation Yrotation
    JOINT Spine
    {
        OFFSET -0.000000 7.246840 0.000000
        CHANNELS 3 Zrotation Xrotation Yrotation
        JOINT Spine1
        {
            OFFSET -0.000000 20.289354 0.000000
            CHANNELS 3 Zrotation Xrotation Yrotation
            JOINT Neck
            {
                OFFSET -0.000000 20.206032 1.836912
                CHANNELS 3 Zrotation Xrotation Yrotation
                JOINT Head
                {
                    OFFSET -0.000000 12.372654 -1.767522
                    CHANNELS 3 Zrotation Xrotation Yrotation
                    End Site
                    {
                        OFFSET -0.000000 22.094025 0.000000
                    }
                }
            }
            JOINT LeftShoulder
            {
                OFFSET 3.465871 17.201674 -0.568930
                CHANNELS 3 Zrotation Xrotation Yrotation
                JOINT LeftArm
                {
                    OFFSET 14.070313 0.000000 0.000000
                    CHANNELS 3 Zrotation Xrotation Yrotation
                    JOINT LeftForeArm
                    {
                        OFFSET 26.549477 0.000000 0.000000
                        CHANNELS 3 Zrotation Xrotation Yrotation
                        JOINT LeftHand
                        {
                            OFFSET 18.880413 0.000000 0.000000
                            CHANNELS 3 Zrotation Xrotation Yrotation
                            End Site
                            {
                                OFFSET 13.256415 0.000000 0.000000
                            }
                        }
                    }
                }
            }
            JOINT RightShoulder
            {
                OFFSET -3.526370 17.201674 -0.568930
                CHANNELS 3 Zrotation Xrotation Yrotation
                JOINT RightArm
                {
                    OFFSET -14.070313 0.000000 0.000000
                    CHANNELS 3 Zrotation Xrotation Yrotation
                    JOINT RightForeArm
                    {
                        OFFSET -26.549477 0.000000 0.000000
                        CHANNELS 3 Zrotation Xrotation Yrotation
                        JOINT RightHand
                        {
                            OFFSET -18.880413 0.000000 0.000000
                            CHANNELS 3 Zrotation Xrotation Yrotation
                            End Site
                            {
                                OFFSET -13.256415 0.000000 0.000000
                            }
                        }
                    }
                }
            }
        }
    }
    JOINT LeftUpLeg
    {
        OFFSET 8.837609 0.000000 0.000000
        CHANNELS 3 Zrotation Xrotation Yrotation
        JOINT LeftLeg
        {
            OFFSET -0.000000 -41.345005 0.000000
            CHANNELS 3 Zrotation Xrotation Yrotation
            JOINT LeftFoot
            {
                OFFSET -0.000000 -35.500874 0.000000
                CHANNELS 3 Zrotation Xrotation Yrotation
                JOINT LeftToeBase
                {
                    OFFSET -0.000000 -5.744446 13.256415
                    CHANNELS 3 Zrotation Xrotation Yrotation
                    End Site
                    {
                        OFFSET -0.000000 0.000000 3.535044
                    }
                }
            }
        }
    }
    JOINT RightUpLeg
    {
        OFFSET -8.837609 0.000000 0.000000
        CHANNELS 3 Zrotation Xrotation Yrotation
        JOINT RightLeg
        {
            OFFSET -0.000000 -41.345005 0.000000
            CHANNELS 3 Zrotation Xrotation Yrotation
            JOINT RightFoot
            {
                OFFSET -0.000000 -35.500874 0.000000
                CHANNELS 3 Zrotation Xrotation Yrotation
                JOINT RightToeBase
                {
                    OFFSET -0.000000 -5.744446 13.256415
                    CHANNELS 3 Zrotation Xrotation Yrotation
                    End Site
                    {
                        OFFSET -0.000000 0.000000 3.535044
                    }
                }
            }
        }
    }
}
MOTION
Frames:    12
Frame Time:    0.010000
12.588170    87.548798    9.012881    6.372941    -6.773142    -9.036102    -10.383050    -7.126578    -3.237484    -3.467641    4.307213    -2.458692    9.319446    40.190273    5.017840    -4.321480    -29.873411    5.796566    9.980145    1.672875    7.367665    -51.332626    43.074310    -30.527756    9.449111    -28.385284    -102.516220    -39.332191    -9.894214    -21.621857    -9.372805    7.465195    9.066564    45.572613    26.725777    1.267059    -22.947046    -20.786753    52.396126    -6.676190    -11.175191    24.787050    -4.586782    -1.164831    3.806608    0.198486    23.851646    2.284836    -1.309663    10.803442    -2.205005    -0.787039    -9.998276    1.177078    -10.807296    -13.271687    -15.110480    -9.192306    47.390297    7.826600    11.217216    6.370182    -7.810771    0.649738    -11.222243    -1.336833    
12.919664    86.790512    9.367676    6.046189    -7.303064    -10.535877    -10.206316    -6.979717    -3.304608    -3.482730    4.549233    -2.542116    9.427584    39.993084    5.798561    -4.781045    -29.355305    6.454725    9.769352    1.974993    7.413868    -52.041744    42.374298    -29.605110    9.498152    -28.663509    -102.500618    -39.875549    -9.998250    -21.712984    -9.274824    7.311293    9.046734    45.930260    27.277334    1.573656    -22.626394    -21.407440    53.045609    -5.412939    -11.556369    24.778297    -4.672683    0.540256    4.085496    0.522021    22.514828    3.002960    -2.587554    9.481921    -3.084789    0.250129    -13.118904    -0.383061    -10.548207    -14.563596    -15.053940    -9.849323    48.502289    8.213065    10.631505    4.217608    -8.640377    0.587166    -11.462240    -1.212172    
13.254041    85.945358    9.690047    5.682699    -7.737348    -12.081863    -10.033217    -6.872285    -3.354539    -3.444925    4.870346    -2.603989    9.598393    39.529472    6.540854    -5.264228    -28.607803    7.064581    9.588988    2.380025    7.632350    -52.917645    41.566551    -28.896130    9.639072    -28.810865    -102.440666    -40.685604    -9.891121    -21.541464    -8.996850    7.179691    8.918602    45.963367    27.666639    2.060205    -21.912949    -22.029957    53.913704    -4.236679    -12.097270    24.280041    -4.669503    1.875264    4.300426    1.044256    21.893578    1.742101    -2.661665    6.620940    -3.690854    -1.193753    -11.627064    1.807138    -10.210203    -15.942178    -14.794576    -10.400320    49.446163    8.574123    9.762669    2.063335    -9.726985    0.452635    -11.826504    -0.939268    
13.582274    85.022728    9.981850    5.353273    -8.174879    -13.642378    -9.956386    -6.675473    -3.392423    -3.228839    5.072185    -2.667242    9.289877    39.273136    7.356123    -5.368762    -28.137564    7.794405    9.144463    2.789114    7.772819    -53.613464    40.885754    -28.106897    9.863906    -29.139372    -102.366570    -41.461948    -9.868048    -21.442469    -8.886951    7.119521    8.947521    46.316456    27.649776    2.292867    -21.185789    -22.633644    55.152889    -2.705670    -12.489065    23.763224    -4.663046    2.900210    4.345069    1.042703    22.338659    0.989501    -6.275334    3.695498    -3.122654    -1.571238    -11.216702    2.371133    -9.856064    -17.304829    -14.415994    -10.959413    50.207893    8.960564    8.451562    -0.193666    -11.426609    0.412677    -12.122729    -0.859976    
13.930300    84.038757    10.254943    5.143020    -8.664209    -15.172689    -9.959307    -6.419804    -3.436470    -3.126823    5.356369    -2.730213    8.836658    38.939365    8.264175    -5.301885    -27.890406    8.636363    8.804081    3.112034    8.089204    -54.471352    40.315308    -27.319016    9.986423    -29.397722    -102.330879    -42.286900    -9.851842    -21.406185    -8.726479    6.889306    8.925809    46.734589    27.669815    2.561664    -20.347132    -23.499374    56.332413    -0.468839    -13.125499    23.482536    -4.700992    3.630504    3.812998    0.539277    23.163425    -0.397803    -6.360680    0.019352    -1.766949    -2.234583    -9.914934    3.339496    -9.637495    -18.598845    -13.884728    -11.355708    50.790363    9.188278    7.212103    -2.293020    -12.620083    0.495933    -12.503256    -1.039145    
14.289263    83.028267    10.516454    5.134511    -9.247931    -16.658009    -10.315153    -6.019308    -3.446880    -2.853826    5.553185    -2.764606    8.274453    38.613735    9.139505    -5.081623    -27.811968    9.473408    8.274857    3.534048    8.419577    -55.154560    39.746994    -26.691793    9.964570    -29.535788    -102.386208    -43.079933    -9.883992    -21.326958    -8.642943    6.442070    8.817614    47.676151    27.858541    2.439019    -19.557306    -24.560251    57.676033    1.695544    -13.954935    23.224901    -4.945291    4.183729    3.348798    -0.542589    24.246363    -0.915919    -5.009459    -3.164852    -0.349444    -2.448098    -9.308892    3.642407    -9.616267    -19.795734    -13.266969    -11.775371    51.147114    9.363867    6.293027    -4.196186    -13.526177    0.568705    -12.930139    -1.199045    
14.642148    82.011368    10.790174    5.308013    -9.991981    -18.058929    -10.762735    -5.507881    -3.430001    -2.757517    5.785748    -2.771383    7.307858    38.037086    10.146422    -4.389534    -27.618271    10.521093    7.690350    3.860982    8.732126    -55.843189    39.180367    -25.875679    9.529685    -29.469933    -102.630386    -43.795143    -10.151246    -21.313360    -8.484841    5.997241    8.762345    49.055553    28.038858    2.044454    -19.217262    -25.814754    59.020603    4.031759    -14.741859    22.864254    -5.481806    4.725518    3.093811    -1.358461    25.516039    -1.917166    -3.518694    -5.958887    1.414075    -2.592249    -9.555958    3.863693    -9.780916    -20.841721    -12.503888    -12.223046    51.348606    9.336099    5.350875    -5.986926    -14.457207    0.498576    -12.900512    -1.050734    
14.989814    80.999969    11.067611    5.650595    -10.830915    -19.348209    -11.580881    -5.076828    -3.443096    -2.350392    6.431635    -2.795840    5.946263    37.069817    11.156305    -3.399858    -27.521748    11.579033    6.884915    3.693513    9.362151    -56.499969    38.994320    -25.036837    8.769038    -29.243128    -102.830070    -44.596851    -10.586164    -21.423279    -8.503544    5.277652    8.673151    50.793964    27.824963    1.484323    -18.641083    -26.757961    60.455112    5.981522    -15.399127    22.839241    -6.276579    5.257021    3.417436    -2.106701    26.627525    -1.999902    -2.054050    -8.481157    2.207287    -2.185537    -9.214257    3.249659    -10.112589    -21.825237    -11.596029    -12.637576    51.443901    9.067695    4.442640    -7.383965    -14.713161    0.546264    -13.015520    -1.153173    
15.334564    80.027069    11.339370    6.201926    -11.662727    -20.542091    -12.671134    -4.755855    -3.489605    -1.909887    7.151494    -2.841894    4.569928    35.951942    12.156079    -2.249502    -27.261795    12.706115    5.804729    3.932822    9.981978    -56.764942    38.682350    -24.561172    7.621915    -28.928572    -103.144989    -45.363121    -11.361382    -21.611509    -8.356534    4.704998    8.671835    52.547249    27.212523    1.046919    -18.033346    -27.485655    61.824150    9.035944    -15.674684    22.630278    -7.376894    5.698332    4.139718    -2.626230    27.687780    -2.783961    -0.337987    -10.761951    3.819542    -2.269482    -9.269756    3.375790    -10.617488    -22.905905    -10.421617    -13.011361    51.608894    8.966080    3.784793    -8.507014    -14.831600    0.604463    -13.117891    -1.277947    
15.680106    79.099617    11.605079    6.826714    -12.439297    -21.567009    -13.744648    -4.504303    -3.526918    -1.678003    7.826931    -2.868950    3.640111    34.778854    12.886079    -1.347615    -26.831108    13.572796    4.958004    3.741816    10.619333    -57.379265    38.850254    -23.761209    6.557229    -28.541893    -103.116066    -46.097168    -12.077079    -21.660267    -8.049713    4.541947    8.244197    54.373489    26.678871    1.204209    -17.485416    -28.467466    62.696571    11.457754    -16.393759    22.910828    -8.643585    6.063193    5.216129    -2.858948    28.577181    -2.895331    0.431813    -13.210110    4.253117    -2.332467    -8.512396    3.450715    -11.186097    -24.052036    -9.070634    -13.157990    51.819645    8.894537    3.526256    -9.408587    -14.864611    0.612498    -13.246651    -1.297393    
15.997521    78.263084    11.868027    7.401618    -13.107380    -22.461643    -14.656422    -4.525174    -3.657213    -1.613163    8.733031    -2.951759    2.562986    33.472210    13.729227    -0.221450    -26.262634    14.625992    4.113936    3.892949    11.119646    -58.025837    38.671185    -23.041590    5.662777    -27.963713    -102.892876    -46.343082    -12.594358    -21.485649    -7.760168    4.653837    8.236272    56.692581    25.675783    1.256453    -17.326397    -29.721937    63.346478    14.696412    -17.062525    23.169365    -9.931754    6.373360    6.401424    -2.670261    29.195509    -2.404934    1.354610    -15.144855    4.747815    -1.655293    -8.130768    2.442493    -11.620974    -25.144812    -7.683202    -13.479977    51.855011    9.400323    3.422222    -10.094521    -15.010655    0.510605    -13.181607    -1.080533    
16.270220    77.540085    12.141005    7.827142    -13.640260    -23.209133    -15.164174    -4.606473    -3.761406    -1.979625    9.552808    -2.982470    2.223864    32.529736    14.172004    0.098463    -25.964293    15.120717    3.625081    4.121772    11.523071    -58.764610    38.876591    -22.288502    5.307969    -27.619476    -102.245369    -46.529842    -12.759993    -21.315624    -7.440247    5.080009    7.997309    59.648396    24.836224    1.457208    -18.330942    -30.919758    63.304951    17.511772    -17.213749    23.222832    -11.124740    6.563717    7.518064    -2.141943    29.881184    -2.330281    2.387644    -16.872324    5.258105    -1.468478    -7.856428    2.162710    -11.844819    -26.084097    -6.202123    -13.612636    51.824673    9.886604    2.972932    -10.713479    -15.013064    0.503789    -13.081010    -1.064533    
